<?xml version="1.0" standalone="no"?>
<!DOCTYPE svg PUBLIC "-//W3C//DTD SVG 20010904//EN"
 "http://www.w3.org/TR/2001/REC-SVG-20010904/DTD/svg10.dtd">
<svg version="1.0" xmlns="http://www.w3.org/2000/svg"
 width="384.000000pt" height="384.000000pt" viewBox="0 0 384.000000 384.000000"
 preserveAspectRatio="xMidYMid meet">

<g transform="translate(0.000000,384.000000) scale(0.100000,-0.100000)"
fill="#000000" stroke="none">
<path d="M2320 3775 c0 -8 7 -15 15 -15 8 0 15 7 15 15 0 8 -7 15 -15 15 -8 0
-15 -7 -15 -15z"/>
<path d="M2420 3775 c0 -8 7 -15 15 -15 8 0 15 7 15 15 0 8 -7 15 -15 15 -8 0
-15 -7 -15 -15z"/>
<path d="M2530 3775 c0 -8 7 -15 15 -15 8 0 15 7 15 15 0 8 -7 15 -15 15 -8 0
-15 -7 -15 -15z"/>
<path d="M2320 3715 c0 -8 7 -15 15 -15 8 0 15 7 15 15 0 8 -7 15 -15 15 -8 0
-15 -7 -15 -15z"/>
<path d="M2420 3715 c0 -8 7 -15 15 -15 8 0 15 7 15 15 0 8 -7 15 -15 15 -8 0
-15 -7 -15 -15z"/>
<path d="M2530 3715 c0 -8 7 -15 15 -15 8 0 15 7 15 15 0 8 -7 15 -15 15 -8 0
-15 -7 -15 -15z"/>
<path d="M850 3605 c0 -8 7 -15 15 -15 8 0 15 7 15 15 0 8 -7 15 -15 15 -8 0
-15 -7 -15 -15z"/>
<path d="M1490 3605 c0 -8 7 -15 15 -15 8 0 15 7 15 15 0 8 -7 15 -15 15 -8 0
-15 -7 -15 -15z"/>
<path d="M2010 3605 c0 -8 7 -15 15 -15 8 0 15 7 15 15 0 8 -7 15 -15 15 -8 0
-15 -7 -15 -15z"/>
<path d="M2850 3605 c0 -8 7 -15 15 -15 8 0 15 7 15 15 0 8 -7 15 -15 15 -8 0
-15 -7 -15 -15z"/>
<path d="M920 3540 l0 -60 40 0 c22 0 40 5 40 10 0 6 -11 10 -25 10 -23 0 -25
3 -25 50 0 38 -4 50 -15 50 -12 0 -15 -13 -15 -60z"/>
<path d="M1030 3540 l0 -60 40 0 c22 0 40 5 40 10 0 6 -11 10 -25 10 -16 0
-25 6 -25 15 0 8 9 15 20 15 11 0 20 5 20 10 0 6 -9 10 -20 10 -11 0 -20 7
-20 15 0 9 9 15 25 15 14 0 25 5 25 10 0 6 -18 10 -40 10 l-40 0 0 -60z"/>
<path d="M1143 3593 c-16 -6 -17 -30 -2 -35 9 -3 8 -10 -2 -25 -10 -18 -11
-24 0 -37 8 -9 21 -16 31 -16 10 0 23 7 31 16 11 13 10 19 0 37 -10 15 -11 22
-2 25 16 5 13 29 -5 36 -18 7 -33 7 -51 -1z m37 -23 c0 -5 -4 -10 -10 -10 -5
0 -10 5 -10 10 0 6 5 10 10 10 6 0 10 -4 10 -10z m0 -50 c0 -11 -4 -20 -10
-20 -5 0 -10 9 -10 20 0 11 5 20 10 20 6 0 10 -9 10 -20z"/>
<path d="M1253 3593 c-16 -6 -17 -30 -2 -35 9 -3 8 -10 -2 -25 -10 -18 -11
-24 0 -37 8 -9 21 -16 31 -16 10 0 23 7 31 16 11 13 10 19 0 37 -10 15 -11 22
-2 25 16 5 13 29 -5 36 -18 7 -33 7 -51 -1z m37 -23 c0 -5 -4 -10 -10 -10 -5
0 -10 5 -10 10 0 6 5 10 10 10 6 0 10 -4 10 -10z m0 -50 c0 -11 -4 -20 -10
-20 -5 0 -10 9 -10 20 0 11 5 20 10 20 6 0 10 -9 10 -20z"/>
<path d="M1340 3540 c0 -57 1 -60 24 -60 33 0 56 25 56 60 0 35 -23 60 -56 60
-23 0 -24 -3 -24 -60z m50 0 c0 -16 -4 -32 -10 -35 -6 -4 -10 10 -10 35 0 25
4 39 10 35 6 -3 10 -19 10 -35z"/>
<path d="M2080 3540 c0 -57 1 -60 24 -60 33 0 56 25 56 60 0 35 -23 60 -56 60
-23 0 -24 -3 -24 -60z m50 0 c0 -16 -4 -32 -10 -35 -6 -4 -10 10 -10 35 0 25
4 39 10 35 6 -3 10 -19 10 -35z"/>
<path d="M2193 3593 c-16 -6 -17 -30 -2 -35 9 -3 8 -10 -2 -25 -10 -18 -11
-24 0 -37 8 -9 21 -16 31 -16 10 0 23 7 31 16 11 13 10 19 0 37 -10 15 -11 22
-2 25 16 5 13 29 -5 36 -18 7 -33 7 -51 -1z m37 -23 c0 -5 -4 -10 -10 -10 -5
0 -10 5 -10 10 0 6 5 10 10 10 6 0 10 -4 10 -10z m0 -50 c0 -11 -4 -20 -10
-20 -5 0 -10 9 -10 20 0 11 5 20 10 20 6 0 10 -9 10 -20z"/>
<path d="M2303 3593 c-16 -6 -17 -30 -2 -35 9 -3 8 -10 -2 -25 -10 -18 -11
-24 0 -37 8 -9 21 -16 31 -16 10 0 23 7 31 16 11 13 10 19 0 37 -10 15 -11 22
-2 25 16 5 13 29 -5 36 -18 7 -33 7 -51 -1z m37 -23 c0 -5 -4 -10 -10 -10 -5
0 -10 5 -10 10 0 6 5 10 10 10 6 0 10 -4 10 -10z m0 -50 c0 -11 -4 -20 -10
-20 -5 0 -10 9 -10 20 0 11 5 20 10 20 6 0 10 -9 10 -20z"/>
<path d="M2403 3593 c-16 -6 -17 -30 -2 -35 9 -3 8 -10 -2 -25 -10 -18 -11
-24 0 -37 8 -9 21 -16 31 -16 10 0 23 7 31 16 11 13 10 19 0 37 -10 15 -11 22
-2 25 16 5 13 29 -5 36 -18 7 -33 7 -51 -1z m37 -23 c0 -5 -4 -10 -10 -10 -5
0 -10 5 -10 10 0 6 5 10 10 10 6 0 10 -4 10 -10z m0 -50 c0 -11 -4 -20 -10
-20 -5 0 -10 9 -10 20 0 11 5 20 10 20 6 0 10 -9 10 -20z"/>
<path d="M2513 3593 c-16 -6 -17 -30 -2 -35 9 -3 8 -10 -2 -25 -10 -18 -11
-24 0 -37 8 -9 21 -16 31 -16 10 0 23 7 31 16 11 13 10 19 0 37 -10 15 -11 22
-2 25 16 5 13 29 -5 36 -18 7 -33 7 -51 -1z m37 -23 c0 -5 -4 -10 -10 -10 -5
0 -10 5 -10 10 0 6 5 10 10 10 6 0 10 -4 10 -10z m0 -50 c0 -11 -4 -20 -10
-20 -5 0 -10 9 -10 20 0 11 5 20 10 20 6 0 10 -9 10 -20z"/>
<path d="M2613 3593 c-16 -6 -17 -30 -2 -35 9 -3 8 -10 -2 -25 -10 -18 -11
-24 0 -37 8 -9 21 -16 31 -16 10 0 23 7 31 16 11 13 10 19 0 37 -10 15 -11 22
-2 25 16 5 13 29 -5 36 -18 7 -33 7 -51 -1z m37 -23 c0 -5 -4 -10 -10 -10 -5
0 -10 5 -10 10 0 6 5 10 10 10 6 0 10 -4 10 -10z m0 -50 c0 -11 -4 -20 -10
-20 -5 0 -10 9 -10 20 0 11 5 20 10 20 6 0 10 -9 10 -20z"/>
<path d="M2710 3540 c0 -57 1 -60 24 -60 33 0 56 25 56 60 0 35 -23 60 -56 60
-23 0 -24 -3 -24 -60z m50 0 c0 -16 -4 -32 -10 -35 -6 -4 -10 10 -10 35 0 25
4 39 10 35 6 -3 10 -19 10 -35z"/>
<path d="M830 3560 c0 -5 5 -10 10 -10 6 0 10 -11 10 -25 0 -16 -6 -25 -15
-25 -8 0 -15 -4 -15 -10 0 -5 20 -10 45 -10 25 0 45 5 45 10 0 6 -7 10 -15 10
-10 0 -15 11 -15 35 0 31 -3 35 -25 35 -14 0 -25 -4 -25 -10z"/>
<path d="M1470 3560 c0 -5 5 -10 10 -10 6 0 10 -20 10 -45 0 -33 -4 -45 -15
-45 -8 0 -15 -4 -15 -10 0 -14 33 -13 48 2 7 7 12 36 12 65 0 50 -1 53 -25 53
-14 0 -25 -4 -25 -10z"/>
<path d="M1900 3555 c0 -8 7 -15 15 -15 8 0 15 7 15 15 0 8 -7 15 -15 15 -8 0
-15 -7 -15 -15z"/>
<path d="M1990 3560 c0 -5 5 -10 10 -10 6 0 10 -20 10 -45 0 -33 -4 -45 -15
-45 -8 0 -15 -4 -15 -10 0 -14 33 -13 48 2 7 7 12 36 12 65 0 50 -1 53 -25 53
-14 0 -25 -4 -25 -10z"/>
<path d="M2830 3560 c0 -5 5 -10 10 -10 6 0 10 -20 10 -45 0 -33 -4 -45 -15
-45 -8 0 -15 -4 -15 -10 0 -14 33 -13 48 2 7 7 12 36 12 65 0 50 -1 53 -25 53
-14 0 -25 -4 -25 -10z"/>
<path d="M2950 3555 c0 -8 7 -15 15 -15 8 0 15 7 15 15 0 8 -7 15 -15 15 -8 0
-15 -7 -15 -15z"/>
<path d="M1580 3495 c0 -8 7 -15 15 -15 8 0 15 7 15 15 0 8 -7 15 -15 15 -8 0
-15 -7 -15 -15z"/>
<path d="M1900 3495 c0 -8 7 -15 15 -15 8 0 15 7 15 15 0 8 -7 15 -15 15 -8 0
-15 -7 -15 -15z"/>
<path d="M2950 3495 c0 -8 7 -15 15 -15 8 0 15 7 15 15 0 8 -7 15 -15 15 -8 0
-15 -7 -15 -15z"/>
<path d="M950 3395 c0 -8 7 -15 15 -15 8 0 15 7 15 15 0 8 -7 15 -15 15 -8 0
-15 -7 -15 -15z"/>
<path d="M2120 3395 c0 -8 7 -15 15 -15 8 0 15 7 15 15 0 8 -7 15 -15 15 -8 0
-15 -7 -15 -15z"/>
<path d="M2220 3395 c0 -8 7 -15 15 -15 8 0 15 7 15 15 0 8 -7 15 -15 15 -8 0
-15 -7 -15 -15z"/>
<path d="M2330 3395 c0 -8 7 -15 15 -15 8 0 15 7 15 15 0 8 -7 15 -15 15 -8 0
-15 -7 -15 -15z"/>
<path d="M1793 3383 c-4 -10 -11 -22 -17 -26 -8 -6 -7 -10 2 -14 6 -2 12 -20
12 -39 0 -24 5 -34 15 -34 10 0 15 11 15 35 0 24 5 35 15 35 8 0 15 5 15 10 0
6 -7 10 -15 10 -8 0 -15 5 -15 10 0 6 7 10 15 10 8 0 15 5 15 10 0 18 -50 11
-57 -7z"/>
<path d="M710 3330 l0 -60 40 0 c22 0 40 5 40 10 0 6 -11 10 -25 10 -23 0 -25
3 -25 50 0 38 -4 50 -15 50 -12 0 -15 -13 -15 -60z"/>
<path d="M837 3372 c-35 -38 -10 -107 37 -100 16 2 22 11 24 36 3 27 0 32 -18
32 -17 0 -19 -4 -14 -27 5 -22 4 -25 -5 -17 -7 6 -11 24 -9 40 2 23 8 29 26
28 12 0 21 4 19 10 -6 19 -42 18 -60 -2z"/>
<path d="M1050 3376 c0 -8 -6 -17 -12 -19 -10 -4 -10 -8 -1 -14 6 -4 13 -22
15 -38 2 -24 8 -31 31 -33 15 -2 27 1 27 7 0 6 -7 11 -15 11 -9 0 -15 9 -15
25 0 16 6 25 15 25 8 0 15 5 15 10 0 6 -7 10 -15 10 -8 0 -15 7 -15 15 0 8 -7
15 -15 15 -8 0 -15 -6 -15 -14z"/>
<path d="M1130 3330 l0 -60 40 0 c22 0 40 5 40 10 0 6 -11 10 -25 10 -16 0
-25 6 -25 15 0 8 9 15 20 15 11 0 20 5 20 10 0 6 -9 10 -20 10 -11 0 -20 7
-20 15 0 9 9 15 25 15 14 0 25 5 25 10 0 6 -18 10 -40 10 l-40 0 0 -60z"/>
<path d="M1253 3383 c-16 -6 -17 -30 -2 -35 9 -3 8 -10 -2 -25 -10 -18 -11
-24 0 -37 8 -9 21 -16 31 -16 10 0 23 7 31 16 11 13 10 19 0 37 -10 15 -11 22
-2 25 16 5 13 29 -5 36 -18 7 -33 7 -51 -1z m37 -23 c0 -5 -4 -10 -10 -10 -5
0 -10 5 -10 10 0 6 5 10 10 10 6 0 10 -4 10 -10z m0 -50 c0 -11 -4 -20 -10
-20 -5 0 -10 9 -10 20 0 11 5 20 10 20 6 0 10 -9 10 -20z"/>
<path d="M1353 3383 c-16 -6 -17 -30 -2 -35 9 -3 8 -10 -2 -25 -10 -18 -11
-24 0 -37 8 -9 21 -16 31 -16 10 0 23 7 31 16 11 13 10 19 0 37 -10 15 -11 22
-2 25 16 5 13 29 -5 36 -18 7 -33 7 -51 -1z m37 -23 c0 -5 -4 -10 -10 -10 -5
0 -10 5 -10 10 0 6 5 10 10 10 6 0 10 -4 10 -10z m0 -50 c0 -11 -4 -20 -10
-20 -5 0 -10 9 -10 20 0 11 5 20 10 20 6 0 10 -9 10 -20z"/>
<path d="M1463 3383 c-16 -6 -17 -30 -2 -35 9 -3 8 -10 -2 -25 -10 -18 -11
-24 0 -37 8 -9 21 -16 31 -16 10 0 23 7 31 16 11 13 10 19 0 37 -10 15 -11 22
-2 25 16 5 13 29 -5 36 -18 7 -33 7 -51 -1z m37 -23 c0 -5 -4 -10 -10 -10 -5
0 -10 5 -10 10 0 6 5 10 10 10 6 0 10 -4 10 -10z m0 -50 c0 -11 -4 -20 -10
-20 -5 0 -10 9 -10 20 0 11 5 20 10 20 6 0 10 -9 10 -20z"/>
<path d="M1550 3330 c0 -57 1 -60 24 -60 33 0 56 25 56 60 0 35 -23 60 -56 60
-23 0 -24 -3 -24 -60z m50 0 c0 -16 -4 -32 -10 -35 -6 -4 -10 10 -10 35 0 25
4 39 10 35 6 -3 10 -19 10 -35z"/>
<path d="M1883 3383 c-16 -6 -17 -30 -2 -35 9 -3 8 -10 -2 -25 -10 -18 -11
-24 0 -37 8 -9 21 -16 31 -16 10 0 23 7 31 16 11 13 10 19 0 37 -10 15 -11 22
-2 25 16 5 13 29 -5 36 -18 7 -33 7 -51 -1z m37 -23 c0 -5 -4 -10 -10 -10 -5
0 -10 5 -10 10 0 6 5 10 10 10 6 0 10 -4 10 -10z m0 -50 c0 -11 -4 -20 -10
-20 -5 0 -10 9 -10 20 0 11 5 20 10 20 6 0 10 -9 10 -20z"/>
<path d="M1987 3372 c-35 -38 -10 -107 37 -100 16 2 22 11 24 36 3 27 0 32
-18 32 -17 0 -19 -4 -14 -27 5 -22 4 -25 -5 -17 -7 6 -11 24 -9 40 2 23 8 29
26 28 12 0 21 4 19 10 -6 19 -42 18 -60 -2z"/>
<path d="M2390 3330 l0 -60 40 0 c22 0 40 5 40 10 0 6 -11 10 -25 10 -23 0
-25 3 -25 50 0 38 -4 50 -15 50 -12 0 -15 -13 -15 -60z"/>
<path d="M2513 3383 c-16 -6 -17 -30 -2 -35 9 -3 8 -10 -2 -25 -10 -18 -11
-24 0 -37 8 -9 21 -16 31 -16 10 0 23 7 31 16 11 13 10 19 0 37 -10 15 -11 22
-2 25 16 5 13 29 -5 36 -18 7 -33 7 -51 -1z m37 -23 c0 -5 -4 -10 -10 -10 -5
0 -10 5 -10 10 0 6 5 10 10 10 6 0 10 -4 10 -10z m0 -50 c0 -11 -4 -20 -10
-20 -5 0 -10 9 -10 20 0 11 5 20 10 20 6 0 10 -9 10 -20z"/>
<path d="M2613 3383 c-16 -6 -17 -30 -2 -35 9 -3 8 -10 -2 -25 -10 -18 -11
-24 0 -37 8 -9 21 -16 31 -16 10 0 23 7 31 16 11 13 10 19 0 37 -10 15 -11 22
-2 25 16 5 13 29 -5 36 -18 7 -33 7 -51 -1z m37 -23 c0 -5 -4 -10 -10 -10 -5
0 -10 5 -10 10 0 6 5 10 10 10 6 0 10 -4 10 -10z m0 -50 c0 -11 -4 -20 -10
-20 -5 0 -10 9 -10 20 0 11 5 20 10 20 6 0 10 -9 10 -20z"/>
<path d="M2723 3383 c-16 -6 -17 -30 -2 -35 9 -3 8 -10 -2 -25 -10 -18 -11
-24 0 -37 8 -9 21 -16 31 -16 10 0 23 7 31 16 11 13 10 19 0 37 -10 15 -11 22
-2 25 16 5 13 29 -5 36 -18 7 -33 7 -51 -1z m37 -23 c0 -5 -4 -10 -10 -10 -5
0 -10 5 -10 10 0 6 5 10 10 10 6 0 10 -4 10 -10z m0 -50 c0 -11 -4 -20 -10
-20 -5 0 -10 9 -10 20 0 11 5 20 10 20 6 0 10 -9 10 -20z"/>
<path d="M2823 3383 c-16 -6 -17 -30 -2 -35 9 -3 8 -10 -2 -25 -10 -18 -11
-24 0 -37 8 -9 21 -16 31 -16 10 0 23 7 31 16 11 13 10 19 0 37 -10 15 -11 22
-2 25 16 5 13 29 -5 36 -18 7 -33 7 -51 -1z m37 -23 c0 -5 -4 -10 -10 -10 -5
0 -10 5 -10 10 0 6 5 10 10 10 6 0 10 -4 10 -10z m0 -50 c0 -11 -4 -20 -10
-20 -5 0 -10 9 -10 20 0 11 5 20 10 20 6 0 10 -9 10 -20z"/>
<path d="M2920 3330 l0 -60 40 0 c22 0 40 5 40 10 0 6 -11 10 -25 10 -16 0
-25 6 -25 15 0 8 9 15 20 15 11 0 20 5 20 10 0 6 -9 10 -20 10 -11 0 -20 7
-20 15 0 9 9 15 25 15 14 0 25 5 25 10 0 6 -18 10 -40 10 l-40 0 0 -60z"/>
<path d="M930 3350 c0 -5 5 -10 10 -10 6 0 10 -11 10 -25 0 -16 -6 -25 -15
-25 -8 0 -15 -4 -15 -10 0 -5 20 -10 45 -10 25 0 45 5 45 10 0 6 -7 10 -15 10
-10 0 -15 11 -15 35 0 31 -3 35 -25 35 -14 0 -25 -4 -25 -10z"/>
<path d="M2100 3350 c0 -5 5 -10 10 -10 6 0 10 -20 10 -45 0 -33 -4 -45 -15
-45 -8 0 -15 -4 -15 -10 0 -14 33 -13 48 2 7 7 12 36 12 65 0 50 -1 53 -25 53
-14 0 -25 -4 -25 -10z"/>
<path d="M2200 3350 c0 -5 5 -10 10 -10 6 0 10 -20 10 -45 0 -33 -4 -45 -15
-45 -8 0 -15 -4 -15 -10 0 -14 33 -13 48 2 7 7 12 36 12 65 0 50 -1 53 -25 53
-14 0 -25 -4 -25 -10z"/>
<path d="M2310 3350 c0 -5 5 -10 10 -10 6 0 10 -20 10 -45 0 -33 -4 -45 -15
-45 -8 0 -15 -4 -15 -10 0 -14 33 -13 48 2 7 7 12 36 12 65 0 50 -1 53 -25 53
-14 0 -25 -4 -25 -10z"/>
<path d="M3050 3345 c0 -8 7 -15 15 -15 8 0 15 7 15 15 0 8 -7 15 -15 15 -8 0
-15 -7 -15 -15z"/>
<path d="M640 3285 c0 -8 7 -15 15 -15 8 0 15 7 15 15 0 8 -7 15 -15 15 -8 0
-15 -7 -15 -15z"/>
<path d="M1690 3285 c0 -8 7 -15 15 -15 8 0 15 7 15 15 0 8 -7 15 -15 15 -8 0
-15 -7 -15 -15z"/>
<path d="M3048 3275 c-6 -27 1 -32 20 -13 16 16 15 38 -2 38 -7 0 -16 -11 -18
-25z"/>
<path d="M640 3185 c0 -8 7 -15 15 -15 8 0 15 7 15 15 0 8 -7 15 -15 15 -8 0
-15 -7 -15 -15z"/>
<path d="M710 3120 l0 -60 40 0 c22 0 40 5 40 10 0 6 -11 10 -25 10 -16 0 -25
6 -25 15 0 8 9 15 20 15 11 0 20 5 20 10 0 6 -9 10 -20 10 -11 0 -20 7 -20 15
0 9 9 15 25 15 14 0 25 5 25 10 0 6 -18 10 -40 10 l-40 0 0 -60z"/>
<path d="M1253 3173 c-16 -6 -17 -30 -2 -35 9 -3 8 -10 -2 -25 -10 -18 -11
-24 0 -37 8 -9 21 -16 31 -16 10 0 23 7 31 16 11 13 10 19 0 37 -10 15 -11 22
-2 25 16 5 13 29 -5 36 -18 7 -33 7 -51 -1z m37 -23 c0 -5 -4 -10 -10 -10 -5
0 -10 5 -10 10 0 6 5 10 10 10 6 0 10 -4 10 -10z m0 -50 c0 -11 -4 -20 -10
-20 -5 0 -10 9 -10 20 0 11 5 20 10 20 6 0 10 -9 10 -20z"/>
<path d="M1353 3173 c-16 -6 -17 -30 -2 -35 9 -3 8 -10 -2 -25 -10 -18 -11
-24 0 -37 8 -9 21 -16 31 -16 10 0 23 7 31 16 11 13 10 19 0 37 -10 15 -11 22
-2 25 16 5 13 29 -5 36 -18 7 -33 7 -51 -1z m37 -23 c0 -5 -4 -10 -10 -10 -5
0 -10 5 -10 10 0 6 5 10 10 10 6 0 10 -4 10 -10z m0 -50 c0 -11 -4 -20 -10
-20 -5 0 -10 9 -10 20 0 11 5 20 10 20 6 0 10 -9 10 -20z"/>
<path d="M1463 3173 c-16 -6 -17 -30 -2 -35 9 -3 8 -10 -2 -25 -10 -18 -11
-24 0 -37 8 -9 21 -16 31 -16 10 0 23 7 31 16 11 13 10 19 0 37 -10 15 -11 22
-2 25 16 5 13 29 -5 36 -18 7 -33 7 -51 -1z m37 -23 c0 -5 -4 -10 -10 -10 -5
0 -10 5 -10 10 0 6 5 10 10 10 6 0 10 -4 10 -10z m0 -50 c0 -11 -4 -20 -10
-20 -5 0 -10 9 -10 20 0 11 5 20 10 20 6 0 10 -9 10 -20z"/>
<path d="M1563 3173 c-16 -6 -17 -30 -2 -35 9 -3 8 -10 -2 -25 -10 -18 -11
-24 0 -37 8 -9 21 -16 31 -16 10 0 23 7 31 16 11 13 10 19 0 37 -10 15 -11 22
-2 25 16 5 13 29 -5 36 -18 7 -33 7 -51 -1z m37 -23 c0 -5 -4 -10 -10 -10 -5
0 -10 5 -10 10 0 6 5 10 10 10 6 0 10 -4 10 -10z m0 -50 c0 -11 -4 -20 -10
-20 -5 0 -10 9 -10 20 0 11 5 20 10 20 6 0 10 -9 10 -20z"/>
<path d="M1660 3120 l0 -60 40 0 c22 0 40 5 40 10 0 6 -11 10 -25 10 -16 0
-25 6 -25 15 0 8 9 15 20 15 11 0 20 5 20 10 0 6 -9 10 -20 10 -11 0 -20 7
-20 15 0 9 9 15 25 15 14 0 25 5 25 10 0 6 -18 10 -40 10 l-40 0 0 -60z"/>
<path d="M1780 3166 c0 -8 -6 -17 -12 -19 -10 -4 -10 -8 -1 -14 6 -4 13 -22
15 -38 2 -24 8 -31 31 -33 15 -2 27 1 27 7 0 6 -7 11 -15 11 -9 0 -15 9 -15
25 0 16 6 25 15 25 8 0 15 5 15 10 0 6 -7 10 -15 10 -8 0 -15 7 -15 15 0 8 -7
15 -15 15 -8 0 -15 -6 -15 -14z"/>
<path d="M2617 3162 c-35 -38 -10 -107 37 -100 16 2 22 11 24 36 3 27 0 32
-18 32 -17 0 -19 -4 -14 -27 5 -22 4 -25 -5 -17 -7 6 -11 24 -9 40 2 23 8 29
26 28 12 0 21 4 19 10 -6 19 -42 18 -60 -2z"/>
<path d="M2723 3173 c-16 -6 -17 -30 -2 -35 9 -3 8 -10 -2 -25 -10 -18 -11
-24 0 -37 8 -9 21 -16 31 -16 10 0 23 7 31 16 11 13 10 19 0 37 -10 15 -11 22
-2 25 16 5 13 29 -5 36 -18 7 -33 7 -51 -1z m37 -23 c0 -5 -4 -10 -10 -10 -5
0 -10 5 -10 10 0 6 5 10 10 10 6 0 10 -4 10 -10z m0 -50 c0 -11 -4 -20 -10
-20 -5 0 -10 9 -10 20 0 11 5 20 10 20 6 0 10 -9 10 -20z"/>
<path d="M2823 3173 c-16 -6 -17 -30 -2 -35 9 -3 8 -10 -2 -25 -10 -18 -11
-24 0 -37 8 -9 21 -16 31 -16 10 0 23 7 31 16 11 13 10 19 0 37 -10 15 -11 22
-2 25 16 5 13 29 -5 36 -18 7 -33 7 -51 -1z m37 -23 c0 -5 -4 -10 -10 -10 -5
0 -10 5 -10 10 0 6 5 10 10 10 6 0 10 -4 10 -10z m0 -50 c0 -11 -4 -20 -10
-20 -5 0 -10 9 -10 20 0 11 5 20 10 20 6 0 10 -9 10 -20z"/>
<path d="M2933 3173 c-16 -6 -17 -30 -2 -35 9 -3 8 -10 -2 -25 -10 -18 -11
-24 0 -37 8 -9 21 -16 31 -16 10 0 23 7 31 16 11 13 10 19 0 37 -10 15 -11 22
-2 25 16 5 13 29 -5 36 -18 7 -33 7 -51 -1z m37 -23 c0 -5 -4 -10 -10 -10 -5
0 -10 5 -10 10 0 6 5 10 10 10 6 0 10 -4 10 -10z m0 -50 c0 -11 -4 -20 -10
-20 -5 0 -10 9 -10 20 0 11 5 20 10 20 6 0 10 -9 10 -20z"/>
<path d="M3033 3173 c-16 -6 -17 -30 -2 -35 9 -3 8 -10 -2 -25 -10 -18 -11
-24 0 -37 8 -9 21 -16 31 -16 10 0 23 7 31 16 11 13 10 19 0 37 -10 15 -11 22
-2 25 16 5 13 29 -5 36 -18 7 -33 7 -51 -1z m37 -23 c0 -5 -4 -10 -10 -10 -5
0 -10 5 -10 10 0 6 5 10 10 10 6 0 10 -4 10 -10z m0 -50 c0 -11 -4 -20 -10
-20 -5 0 -10 9 -10 20 0 11 5 20 10 20 6 0 10 -9 10 -20z"/>
<path d="M620 3140 c0 -5 5 -10 10 -10 6 0 10 -11 10 -25 0 -16 -6 -25 -15
-25 -8 0 -15 -4 -15 -10 0 -5 20 -10 45 -10 25 0 45 5 45 10 0 6 -7 10 -15 10
-10 0 -15 11 -15 35 0 31 -3 35 -25 35 -14 0 -25 -4 -25 -10z"/>
<path d="M1160 3135 c0 -8 7 -15 15 -15 8 0 15 7 15 15 0 8 -7 15 -15 15 -8 0
-15 -7 -15 -15z"/>
<path d="M1160 3075 c0 -8 7 -15 15 -15 8 0 15 7 15 15 0 8 -7 15 -15 15 -8 0
-15 -7 -15 -15z"/>
<path d="M1900 3075 c0 -8 7 -15 15 -15 8 0 15 7 15 15 0 8 -7 15 -15 15 -8 0
-15 -7 -15 -15z"/>
<path d="M2530 3075 c0 -8 7 -15 15 -15 8 0 15 7 15 15 0 8 -7 15 -15 15 -8 0
-15 -7 -15 -15z"/>
<path d="M3160 3075 c0 -8 7 -15 15 -15 8 0 15 7 15 15 0 8 -7 15 -15 15 -8 0
-15 -7 -15 -15z"/>
<path d="M740 2965 c0 -8 7 -15 15 -15 8 0 15 7 15 15 0 8 -7 15 -15 15 -8 0
-15 -7 -15 -15z"/>
<path d="M1240 2900 l0 -60 40 0 c22 0 40 5 40 10 0 6 -11 10 -25 10 -16 0
-25 6 -25 15 0 8 9 15 20 15 11 0 20 5 20 10 0 6 -9 10 -20 10 -11 0 -20 7
-20 15 0 9 9 15 25 15 14 0 25 5 25 10 0 6 -18 10 -40 10 l-40 0 0 -60z"/>
<path d="M1353 2953 c-16 -6 -17 -30 -2 -35 9 -3 8 -10 -2 -25 -10 -18 -11
-24 0 -37 8 -9 21 -16 31 -16 10 0 23 7 31 16 11 13 10 19 0 37 -10 15 -11 22
-2 25 16 5 13 29 -5 36 -18 7 -33 7 -51 -1z m37 -23 c0 -5 -4 -10 -10 -10 -5
0 -10 5 -10 10 0 6 5 10 10 10 6 0 10 -4 10 -10z m0 -50 c0 -11 -4 -20 -10
-20 -5 0 -10 9 -10 20 0 11 5 20 10 20 6 0 10 -9 10 -20z"/>
<path d="M1463 2953 c-16 -6 -17 -30 -2 -35 9 -3 8 -10 -2 -25 -10 -18 -11
-24 0 -37 8 -9 21 -16 31 -16 10 0 23 7 31 16 11 13 10 19 0 37 -10 15 -11 22
-2 25 16 5 13 29 -5 36 -18 7 -33 7 -51 -1z m37 -23 c0 -5 -4 -10 -10 -10 -5
0 -10 5 -10 10 0 6 5 10 10 10 6 0 10 -4 10 -10z m0 -50 c0 -11 -4 -20 -10
-20 -5 0 -10 9 -10 20 0 11 5 20 10 20 6 0 10 -9 10 -20z"/>
<path d="M1563 2953 c-16 -6 -17 -30 -2 -35 9 -3 8 -10 -2 -25 -10 -18 -11
-24 0 -37 8 -9 21 -16 31 -16 10 0 23 7 31 16 11 13 10 19 0 37 -10 15 -11 22
-2 25 16 5 13 29 -5 36 -18 7 -33 7 -51 -1z m37 -23 c0 -5 -4 -10 -10 -10 -5
0 -10 5 -10 10 0 6 5 10 10 10 6 0 10 -4 10 -10z m0 -50 c0 -11 -4 -20 -10
-20 -5 0 -10 9 -10 20 0 11 5 20 10 20 6 0 10 -9 10 -20z"/>
<path d="M2723 2953 c-16 -6 -17 -30 -2 -35 9 -3 8 -10 -2 -25 -10 -18 -11
-24 0 -37 8 -9 21 -16 31 -16 10 0 23 7 31 16 11 13 10 19 0 37 -10 15 -11 22
-2 25 16 5 13 29 -5 36 -18 7 -33 7 -51 -1z m37 -23 c0 -5 -4 -10 -10 -10 -5
0 -10 5 -10 10 0 6 5 10 10 10 6 0 10 -4 10 -10z m0 -50 c0 -11 -4 -20 -10
-20 -5 0 -10 9 -10 20 0 11 5 20 10 20 6 0 10 -9 10 -20z"/>
<path d="M2823 2953 c-16 -6 -17 -30 -2 -35 9 -3 8 -10 -2 -25 -10 -18 -11
-24 0 -37 8 -9 21 -16 31 -16 10 0 23 7 31 16 11 13 10 19 0 37 -10 15 -11 22
-2 25 16 5 13 29 -5 36 -18 7 -33 7 -51 -1z m37 -23 c0 -5 -4 -10 -10 -10 -5
0 -10 5 -10 10 0 6 5 10 10 10 6 0 10 -4 10 -10z m0 -50 c0 -11 -4 -20 -10
-20 -5 0 -10 9 -10 20 0 11 5 20 10 20 6 0 10 -9 10 -20z"/>
<path d="M2933 2953 c-16 -6 -17 -30 -2 -35 9 -3 8 -10 -2 -25 -10 -18 -11
-24 0 -37 8 -9 21 -16 31 -16 10 0 23 7 31 16 11 13 10 19 0 37 -10 15 -11 22
-2 25 16 5 13 29 -5 36 -18 7 -33 7 -51 -1z m37 -23 c0 -5 -4 -10 -10 -10 -5
0 -10 5 -10 10 0 6 5 10 10 10 6 0 10 -4 10 -10z m0 -50 c0 -11 -4 -20 -10
-20 -5 0 -10 9 -10 20 0 11 5 20 10 20 6 0 10 -9 10 -20z"/>
<path d="M3033 2953 c-16 -6 -17 -30 -2 -35 9 -3 8 -10 -2 -25 -10 -18 -11
-24 0 -37 8 -9 21 -16 31 -16 10 0 23 7 31 16 11 13 10 19 0 37 -10 15 -11 22
-2 25 16 5 13 29 -5 36 -18 7 -33 7 -51 -1z m37 -23 c0 -5 -4 -10 -10 -10 -5
0 -10 5 -10 10 0 6 5 10 10 10 6 0 10 -4 10 -10z m0 -50 c0 -11 -4 -20 -10
-20 -5 0 -10 9 -10 20 0 11 5 20 10 20 6 0 10 -9 10 -20z"/>
<path d="M640 2915 c0 -8 7 -15 15 -15 8 0 15 7 15 15 0 8 -7 15 -15 15 -8 0
-15 -7 -15 -15z"/>
<path d="M720 2920 c0 -5 5 -10 10 -10 6 0 10 -11 10 -25 0 -16 -6 -25 -15
-25 -8 0 -15 -4 -15 -10 0 -5 20 -10 45 -10 25 0 45 5 45 10 0 6 -7 10 -15 10
-10 0 -15 11 -15 35 0 31 -3 35 -25 35 -14 0 -25 -4 -25 -10z"/>
<path d="M638 2845 c-6 -27 1 -32 20 -13 16 16 15 38 -2 38 -7 0 -16 -11 -18
-25z"/>
<path d="M1688 2845 c-6 -27 1 -32 20 -13 16 16 15 38 -2 38 -7 0 -16 -11 -18
-25z"/>
<path d="M2628 2845 c-6 -27 1 -32 20 -13 16 16 15 38 -2 38 -7 0 -16 -11 -18
-25z"/>
<path d="M3158 2845 c-6 -27 1 -32 20 -13 16 16 15 38 -2 38 -7 0 -16 -11 -18
-25z"/>
<path d="M1240 2690 c0 -57 1 -60 24 -60 33 0 56 25 56 60 0 35 -23 60 -56 60
-23 0 -24 -3 -24 -60z m50 0 c0 -16 -4 -32 -10 -35 -6 -4 -10 10 -10 35 0 25
4 39 10 35 6 -3 10 -19 10 -35z"/>
<path d="M1353 2743 c-16 -6 -17 -30 -2 -35 9 -3 8 -10 -2 -25 -10 -18 -11
-24 0 -37 8 -9 21 -16 31 -16 10 0 23 7 31 16 11 13 10 19 0 37 -10 15 -11 22
-2 25 16 5 13 29 -5 36 -18 7 -33 7 -51 -1z m37 -23 c0 -5 -4 -10 -10 -10 -5
0 -10 5 -10 10 0 6 5 10 10 10 6 0 10 -4 10 -10z m0 -50 c0 -11 -4 -20 -10
-20 -5 0 -10 9 -10 20 0 11 5 20 10 20 6 0 10 -9 10 -20z"/>
<path d="M1463 2743 c-16 -6 -17 -30 -2 -35 9 -3 8 -10 -2 -25 -10 -18 -11
-24 0 -37 8 -9 21 -16 31 -16 10 0 23 7 31 16 11 13 10 19 0 37 -10 15 -11 22
-2 25 16 5 13 29 -5 36 -18 7 -33 7 -51 -1z m37 -23 c0 -5 -4 -10 -10 -10 -5
0 -10 5 -10 10 0 6 5 10 10 10 6 0 10 -4 10 -10z m0 -50 c0 -11 -4 -20 -10
-20 -5 0 -10 9 -10 20 0 11 5 20 10 20 6 0 10 -9 10 -20z"/>
<path d="M1563 2743 c-16 -6 -17 -30 -2 -35 9 -3 8 -10 -2 -25 -10 -18 -11
-24 0 -37 8 -9 21 -16 31 -16 10 0 23 7 31 16 11 13 10 19 0 37 -10 15 -11 22
-2 25 16 5 13 29 -5 36 -18 7 -33 7 -51 -1z m37 -23 c0 -5 -4 -10 -10 -10 -5
0 -10 5 -10 10 0 6 5 10 10 10 6 0 10 -4 10 -10z m0 -50 c0 -11 -4 -20 -10
-20 -5 0 -10 9 -10 20 0 11 5 20 10 20 6 0 10 -9 10 -20z"/>
<path d="M2723 2743 c-16 -6 -17 -30 -2 -35 9 -3 8 -10 -2 -25 -10 -18 -11
-24 0 -37 8 -9 21 -16 31 -16 10 0 23 7 31 16 11 13 10 19 0 37 -10 15 -11 22
-2 25 16 5 13 29 -5 36 -18 7 -33 7 -51 -1z m37 -23 c0 -5 -4 -10 -10 -10 -5
0 -10 5 -10 10 0 6 5 10 10 10 6 0 10 -4 10 -10z m0 -50 c0 -11 -4 -20 -10
-20 -5 0 -10 9 -10 20 0 11 5 20 10 20 6 0 10 -9 10 -20z"/>
<path d="M2823 2743 c-16 -6 -17 -30 -2 -35 9 -3 8 -10 -2 -25 -10 -18 -11
-24 0 -37 8 -9 21 -16 31 -16 10 0 23 7 31 16 11 13 10 19 0 37 -10 15 -11 22
-2 25 16 5 13 29 -5 36 -18 7 -33 7 -51 -1z m37 -23 c0 -5 -4 -10 -10 -10 -5
0 -10 5 -10 10 0 6 5 10 10 10 6 0 10 -4 10 -10z m0 -50 c0 -11 -4 -20 -10
-20 -5 0 -10 9 -10 20 0 11 5 20 10 20 6 0 10 -9 10 -20z"/>
<path d="M2933 2743 c-16 -6 -17 -30 -2 -35 9 -3 8 -10 -2 -25 -10 -18 -11
-24 0 -37 8 -9 21 -16 31 -16 10 0 23 7 31 16 11 13 10 19 0 37 -10 15 -11 22
-2 25 16 5 13 29 -5 36 -18 7 -33 7 -51 -1z m37 -23 c0 -5 -4 -10 -10 -10 -5
0 -10 5 -10 10 0 6 5 10 10 10 6 0 10 -4 10 -10z m0 -50 c0 -11 -4 -20 -10
-20 -5 0 -10 9 -10 20 0 11 5 20 10 20 6 0 10 -9 10 -20z"/>
<path d="M3033 2743 c-16 -6 -17 -30 -2 -35 9 -3 8 -10 -2 -25 -10 -18 -11
-24 0 -37 8 -9 21 -16 31 -16 10 0 23 7 31 16 11 13 10 19 0 37 -10 15 -11 22
-2 25 16 5 13 29 -5 36 -18 7 -33 7 -51 -1z m37 -23 c0 -5 -4 -10 -10 -10 -5
0 -10 5 -10 10 0 6 5 10 10 10 6 0 10 -4 10 -10z m0 -50 c0 -11 -4 -20 -10
-20 -5 0 -10 9 -10 20 0 11 5 20 10 20 6 0 10 -9 10 -20z"/>
<path d="M2630 2705 c0 -8 7 -15 15 -15 8 0 15 7 15 15 0 8 -7 15 -15 15 -8 0
-15 -7 -15 -15z"/>
<path d="M3160 2705 c0 -8 7 -15 15 -15 8 0 15 7 15 15 0 8 -7 15 -15 15 -8 0
-15 -7 -15 -15z"/>
<path d="M1688 2635 c-6 -27 1 -32 20 -13 16 16 15 38 -2 38 -7 0 -16 -11 -18
-25z"/>
<path d="M2630 2645 c0 -8 7 -15 15 -15 8 0 15 7 15 15 0 8 -7 15 -15 15 -8 0
-15 -7 -15 -15z"/>
<path d="M3160 2645 c0 -8 7 -15 15 -15 8 0 15 7 15 15 0 8 -7 15 -15 15 -8 0
-15 -7 -15 -15z"/>
<path d="M1240 2480 c0 -57 1 -60 24 -60 33 0 56 25 56 60 0 35 -23 60 -56 60
-23 0 -24 -3 -24 -60z m50 0 c0 -16 -4 -32 -10 -35 -6 -4 -10 10 -10 35 0 25
4 39 10 35 6 -3 10 -19 10 -35z"/>
<path d="M1353 2533 c-16 -6 -17 -30 -2 -35 9 -3 8 -10 -2 -25 -10 -18 -11
-24 0 -37 8 -9 21 -16 31 -16 10 0 23 7 31 16 11 13 10 19 0 37 -10 15 -11 22
-2 25 16 5 13 29 -5 36 -18 7 -33 7 -51 -1z m37 -23 c0 -5 -4 -10 -10 -10 -5
0 -10 5 -10 10 0 6 5 10 10 10 6 0 10 -4 10 -10z m0 -50 c0 -11 -4 -20 -10
-20 -5 0 -10 9 -10 20 0 11 5 20 10 20 6 0 10 -9 10 -20z"/>
<path d="M1463 2533 c-16 -6 -17 -30 -2 -35 9 -3 8 -10 -2 -25 -10 -18 -11
-24 0 -37 8 -9 21 -16 31 -16 10 0 23 7 31 16 11 13 10 19 0 37 -10 15 -11 22
-2 25 16 5 13 29 -5 36 -18 7 -33 7 -51 -1z m37 -23 c0 -5 -4 -10 -10 -10 -5
0 -10 5 -10 10 0 6 5 10 10 10 6 0 10 -4 10 -10z m0 -50 c0 -11 -4 -20 -10
-20 -5 0 -10 9 -10 20 0 11 5 20 10 20 6 0 10 -9 10 -20z"/>
<path d="M1563 2533 c-16 -6 -17 -30 -2 -35 9 -3 8 -10 -2 -25 -10 -18 -11
-24 0 -37 8 -9 21 -16 31 -16 10 0 23 7 31 16 11 13 10 19 0 37 -10 15 -11 22
-2 25 16 5 13 29 -5 36 -18 7 -33 7 -51 -1z m37 -23 c0 -5 -4 -10 -10 -10 -5
0 -10 5 -10 10 0 6 5 10 10 10 6 0 10 -4 10 -10z m0 -50 c0 -11 -4 -20 -10
-20 -5 0 -10 9 -10 20 0 11 5 20 10 20 6 0 10 -9 10 -20z"/>
<path d="M2723 2533 c-16 -6 -17 -30 -2 -35 9 -3 8 -10 -2 -25 -10 -18 -11
-24 0 -37 8 -9 21 -16 31 -16 10 0 23 7 31 16 11 13 10 19 0 37 -10 15 -11 22
-2 25 16 5 13 29 -5 36 -18 7 -33 7 -51 -1z m37 -23 c0 -5 -4 -10 -10 -10 -5
0 -10 5 -10 10 0 6 5 10 10 10 6 0 10 -4 10 -10z m0 -50 c0 -11 -4 -20 -10
-20 -5 0 -10 9 -10 20 0 11 5 20 10 20 6 0 10 -9 10 -20z"/>
<path d="M2823 2533 c-16 -6 -17 -30 -2 -35 9 -3 8 -10 -2 -25 -10 -18 -11
-24 0 -37 8 -9 21 -16 31 -16 10 0 23 7 31 16 11 13 10 19 0 37 -10 15 -11 22
-2 25 16 5 13 29 -5 36 -18 7 -33 7 -51 -1z m37 -23 c0 -5 -4 -10 -10 -10 -5
0 -10 5 -10 10 0 6 5 10 10 10 6 0 10 -4 10 -10z m0 -50 c0 -11 -4 -20 -10
-20 -5 0 -10 9 -10 20 0 11 5 20 10 20 6 0 10 -9 10 -20z"/>
<path d="M2933 2533 c-16 -6 -17 -30 -2 -35 9 -3 8 -10 -2 -25 -10 -18 -11
-24 0 -37 8 -9 21 -16 31 -16 10 0 23 7 31 16 11 13 10 19 0 37 -10 15 -11 22
-2 25 16 5 13 29 -5 36 -18 7 -33 7 -51 -1z m37 -23 c0 -5 -4 -10 -10 -10 -5
0 -10 5 -10 10 0 6 5 10 10 10 6 0 10 -4 10 -10z m0 -50 c0 -11 -4 -20 -10
-20 -5 0 -10 9 -10 20 0 11 5 20 10 20 6 0 10 -9 10 -20z"/>
<path d="M3033 2533 c-16 -6 -17 -30 -2 -35 9 -3 8 -10 -2 -25 -10 -18 -11
-24 0 -37 8 -9 21 -16 31 -16 10 0 23 7 31 16 11 13 10 19 0 37 -10 15 -11 22
-2 25 16 5 13 29 -5 36 -18 7 -33 7 -51 -1z m37 -23 c0 -5 -4 -10 -10 -10 -5
0 -10 5 -10 10 0 6 5 10 10 10 6 0 10 -4 10 -10z m0 -50 c0 -11 -4 -20 -10
-20 -5 0 -10 9 -10 20 0 11 5 20 10 20 6 0 10 -9 10 -20z"/>
<path d="M2630 2495 c0 -8 7 -15 15 -15 8 0 15 7 15 15 0 8 -7 15 -15 15 -8 0
-15 -7 -15 -15z"/>
<path d="M3160 2495 c0 -8 7 -15 15 -15 8 0 15 7 15 15 0 8 -7 15 -15 15 -8 0
-15 -7 -15 -15z"/>
<path d="M1688 2425 c-6 -27 1 -32 20 -13 16 16 15 38 -2 38 -7 0 -16 -11 -18
-25z"/>
<path d="M2630 2435 c0 -8 7 -15 15 -15 8 0 15 7 15 15 0 8 -7 15 -15 15 -8 0
-15 -7 -15 -15z"/>
<path d="M3160 2435 c0 -8 7 -15 15 -15 8 0 15 7 15 15 0 8 -7 15 -15 15 -8 0
-15 -7 -15 -15z"/>
<path d="M1240 2260 c0 -57 1 -60 24 -60 33 0 56 25 56 60 0 35 -23 60 -56 60
-23 0 -24 -3 -24 -60z m50 0 c0 -16 -4 -32 -10 -35 -6 -4 -10 10 -10 35 0 25
4 39 10 35 6 -3 10 -19 10 -35z"/>
<path d="M1353 2313 c-16 -6 -17 -30 -2 -35 9 -3 8 -10 -2 -25 -10 -18 -11
-24 0 -37 8 -9 21 -16 31 -16 10 0 23 7 31 16 11 13 10 19 0 37 -10 15 -11 22
-2 25 16 5 13 29 -5 36 -18 7 -33 7 -51 -1z m37 -23 c0 -5 -4 -10 -10 -10 -5
0 -10 5 -10 10 0 6 5 10 10 10 6 0 10 -4 10 -10z m0 -50 c0 -11 -4 -20 -10
-20 -5 0 -10 9 -10 20 0 11 5 20 10 20 6 0 10 -9 10 -20z"/>
<path d="M1463 2313 c-16 -6 -17 -30 -2 -35 9 -3 8 -10 -2 -25 -10 -18 -11
-24 0 -37 8 -9 21 -16 31 -16 10 0 23 7 31 16 11 13 10 19 0 37 -10 15 -11 22
-2 25 16 5 13 29 -5 36 -18 7 -33 7 -51 -1z m37 -23 c0 -5 -4 -10 -10 -10 -5
0 -10 5 -10 10 0 6 5 10 10 10 6 0 10 -4 10 -10z m0 -50 c0 -11 -4 -20 -10
-20 -5 0 -10 9 -10 20 0 11 5 20 10 20 6 0 10 -9 10 -20z"/>
<path d="M1563 2313 c-16 -6 -17 -30 -2 -35 9 -3 8 -10 -2 -25 -10 -18 -11
-24 0 -37 8 -9 21 -16 31 -16 10 0 23 7 31 16 11 13 10 19 0 37 -10 15 -11 22
-2 25 16 5 13 29 -5 36 -18 7 -33 7 -51 -1z m37 -23 c0 -5 -4 -10 -10 -10 -5
0 -10 5 -10 10 0 6 5 10 10 10 6 0 10 -4 10 -10z m0 -50 c0 -11 -4 -20 -10
-20 -5 0 -10 9 -10 20 0 11 5 20 10 20 6 0 10 -9 10 -20z"/>
<path d="M2723 2313 c-16 -6 -17 -30 -2 -35 9 -3 8 -10 -2 -25 -10 -18 -11
-24 0 -37 8 -9 21 -16 31 -16 10 0 23 7 31 16 11 13 10 19 0 37 -10 15 -11 22
-2 25 16 5 13 29 -5 36 -18 7 -33 7 -51 -1z m37 -23 c0 -5 -4 -10 -10 -10 -5
0 -10 5 -10 10 0 6 5 10 10 10 6 0 10 -4 10 -10z m0 -50 c0 -11 -4 -20 -10
-20 -5 0 -10 9 -10 20 0 11 5 20 10 20 6 0 10 -9 10 -20z"/>
<path d="M2823 2313 c-16 -6 -17 -30 -2 -35 9 -3 8 -10 -2 -25 -10 -18 -11
-24 0 -37 8 -9 21 -16 31 -16 10 0 23 7 31 16 11 13 10 19 0 37 -10 15 -11 22
-2 25 16 5 13 29 -5 36 -18 7 -33 7 -51 -1z m37 -23 c0 -5 -4 -10 -10 -10 -5
0 -10 5 -10 10 0 6 5 10 10 10 6 0 10 -4 10 -10z m0 -50 c0 -11 -4 -20 -10
-20 -5 0 -10 9 -10 20 0 11 5 20 10 20 6 0 10 -9 10 -20z"/>
<path d="M2933 2313 c-16 -6 -17 -30 -2 -35 9 -3 8 -10 -2 -25 -10 -18 -11
-24 0 -37 8 -9 21 -16 31 -16 10 0 23 7 31 16 11 13 10 19 0 37 -10 15 -11 22
-2 25 16 5 13 29 -5 36 -18 7 -33 7 -51 -1z m37 -23 c0 -5 -4 -10 -10 -10 -5
0 -10 5 -10 10 0 6 5 10 10 10 6 0 10 -4 10 -10z m0 -50 c0 -11 -4 -20 -10
-20 -5 0 -10 9 -10 20 0 11 5 20 10 20 6 0 10 -9 10 -20z"/>
<path d="M3033 2313 c-16 -6 -17 -30 -2 -35 9 -3 8 -10 -2 -25 -10 -18 -11
-24 0 -37 8 -9 21 -16 31 -16 10 0 23 7 31 16 11 13 10 19 0 37 -10 15 -11 22
-2 25 16 5 13 29 -5 36 -18 7 -33 7 -51 -1z m37 -23 c0 -5 -4 -10 -10 -10 -5
0 -10 5 -10 10 0 6 5 10 10 10 6 0 10 -4 10 -10z m0 -50 c0 -11 -4 -20 -10
-20 -5 0 -10 9 -10 20 0 11 5 20 10 20 6 0 10 -9 10 -20z"/>
<path d="M2630 2275 c0 -8 7 -15 15 -15 8 0 15 7 15 15 0 8 -7 15 -15 15 -8 0
-15 -7 -15 -15z"/>
<path d="M3160 2275 c0 -8 7 -15 15 -15 8 0 15 7 15 15 0 8 -7 15 -15 15 -8 0
-15 -7 -15 -15z"/>
<path d="M1688 2205 c-6 -27 1 -32 20 -13 16 16 15 38 -2 38 -7 0 -16 -11 -18
-25z"/>
<path d="M2630 2215 c0 -8 7 -15 15 -15 8 0 15 7 15 15 0 8 -7 15 -15 15 -8 0
-15 -7 -15 -15z"/>
<path d="M3160 2215 c0 -8 7 -15 15 -15 8 0 15 7 15 15 0 8 -7 15 -15 15 -8 0
-15 -7 -15 -15z"/>
<path d="M1240 2050 c0 -57 1 -60 24 -60 33 0 56 25 56 60 0 35 -23 60 -56 60
-23 0 -24 -3 -24 -60z m50 0 c0 -16 -4 -32 -10 -35 -6 -4 -10 10 -10 35 0 25
4 39 10 35 6 -3 10 -19 10 -35z"/>
<path d="M1353 2103 c-16 -6 -17 -30 -2 -35 9 -3 8 -10 -2 -25 -10 -18 -11
-24 0 -37 8 -9 21 -16 31 -16 10 0 23 7 31 16 11 13 10 19 0 37 -10 15 -11 22
-2 25 16 5 13 29 -5 36 -18 7 -33 7 -51 -1z m37 -23 c0 -5 -4 -10 -10 -10 -5
0 -10 5 -10 10 0 6 5 10 10 10 6 0 10 -4 10 -10z m0 -50 c0 -11 -4 -20 -10
-20 -5 0 -10 9 -10 20 0 11 5 20 10 20 6 0 10 -9 10 -20z"/>
<path d="M1463 2103 c-16 -6 -17 -30 -2 -35 9 -3 8 -10 -2 -25 -10 -18 -11
-24 0 -37 8 -9 21 -16 31 -16 10 0 23 7 31 16 11 13 10 19 0 37 -10 15 -11 22
-2 25 16 5 13 29 -5 36 -18 7 -33 7 -51 -1z m37 -23 c0 -5 -4 -10 -10 -10 -5
0 -10 5 -10 10 0 6 5 10 10 10 6 0 10 -4 10 -10z m0 -50 c0 -11 -4 -20 -10
-20 -5 0 -10 9 -10 20 0 11 5 20 10 20 6 0 10 -9 10 -20z"/>
<path d="M1563 2103 c-16 -6 -17 -30 -2 -35 9 -3 8 -10 -2 -25 -10 -18 -11
-24 0 -37 8 -9 21 -16 31 -16 10 0 23 7 31 16 11 13 10 19 0 37 -10 15 -11 22
-2 25 16 5 13 29 -5 36 -18 7 -33 7 -51 -1z m37 -23 c0 -5 -4 -10 -10 -10 -5
0 -10 5 -10 10 0 6 5 10 10 10 6 0 10 -4 10 -10z m0 -50 c0 -11 -4 -20 -10
-20 -5 0 -10 9 -10 20 0 11 5 20 10 20 6 0 10 -9 10 -20z"/>
<path d="M2723 2103 c-16 -6 -17 -30 -2 -35 9 -3 8 -10 -2 -25 -10 -18 -11
-24 0 -37 8 -9 21 -16 31 -16 10 0 23 7 31 16 11 13 10 19 0 37 -10 15 -11 22
-2 25 16 5 13 29 -5 36 -18 7 -33 7 -51 -1z m37 -23 c0 -5 -4 -10 -10 -10 -5
0 -10 5 -10 10 0 6 5 10 10 10 6 0 10 -4 10 -10z m0 -50 c0 -11 -4 -20 -10
-20 -5 0 -10 9 -10 20 0 11 5 20 10 20 6 0 10 -9 10 -20z"/>
<path d="M2823 2103 c-16 -6 -17 -30 -2 -35 9 -3 8 -10 -2 -25 -10 -18 -11
-24 0 -37 8 -9 21 -16 31 -16 10 0 23 7 31 16 11 13 10 19 0 37 -10 15 -11 22
-2 25 16 5 13 29 -5 36 -18 7 -33 7 -51 -1z m37 -23 c0 -5 -4 -10 -10 -10 -5
0 -10 5 -10 10 0 6 5 10 10 10 6 0 10 -4 10 -10z m0 -50 c0 -11 -4 -20 -10
-20 -5 0 -10 9 -10 20 0 11 5 20 10 20 6 0 10 -9 10 -20z"/>
<path d="M2933 2103 c-16 -6 -17 -30 -2 -35 9 -3 8 -10 -2 -25 -10 -18 -11
-24 0 -37 8 -9 21 -16 31 -16 10 0 23 7 31 16 11 13 10 19 0 37 -10 15 -11 22
-2 25 16 5 13 29 -5 36 -18 7 -33 7 -51 -1z m37 -23 c0 -5 -4 -10 -10 -10 -5
0 -10 5 -10 10 0 6 5 10 10 10 6 0 10 -4 10 -10z m0 -50 c0 -11 -4 -20 -10
-20 -5 0 -10 9 -10 20 0 11 5 20 10 20 6 0 10 -9 10 -20z"/>
<path d="M3033 2103 c-16 -6 -17 -30 -2 -35 9 -3 8 -10 -2 -25 -10 -18 -11
-24 0 -37 8 -9 21 -16 31 -16 10 0 23 7 31 16 11 13 10 19 0 37 -10 15 -11 22
-2 25 16 5 13 29 -5 36 -18 7 -33 7 -51 -1z m37 -23 c0 -5 -4 -10 -10 -10 -5
0 -10 5 -10 10 0 6 5 10 10 10 6 0 10 -4 10 -10z m0 -50 c0 -11 -4 -20 -10
-20 -5 0 -10 9 -10 20 0 11 5 20 10 20 6 0 10 -9 10 -20z"/>
<path d="M2630 2065 c0 -8 7 -15 15 -15 8 0 15 7 15 15 0 8 -7 15 -15 15 -8 0
-15 -7 -15 -15z"/>
<path d="M3160 2065 c0 -8 7 -15 15 -15 8 0 15 7 15 15 0 8 -7 15 -15 15 -8 0
-15 -7 -15 -15z"/>
<path d="M1688 1995 c-6 -27 1 -32 20 -13 16 16 15 38 -2 38 -7 0 -16 -11 -18
-25z"/>
<path d="M2630 2005 c0 -8 7 -15 15 -15 8 0 15 7 15 15 0 8 -7 15 -15 15 -8 0
-15 -7 -15 -15z"/>
<path d="M3160 2005 c0 -8 7 -15 15 -15 8 0 15 7 15 15 0 8 -7 15 -15 15 -8 0
-15 -7 -15 -15z"/>
<path d="M1253 1893 c-16 -6 -17 -30 -2 -35 9 -3 8 -10 -2 -25 -10 -18 -11
-24 0 -37 8 -9 21 -16 31 -16 10 0 23 7 31 16 11 13 10 19 0 37 -10 15 -11 22
-2 25 16 5 13 29 -5 36 -18 7 -33 7 -51 -1z m37 -23 c0 -5 -4 -10 -10 -10 -5
0 -10 5 -10 10 0 6 5 10 10 10 6 0 10 -4 10 -10z m0 -50 c0 -11 -4 -20 -10
-20 -5 0 -10 9 -10 20 0 11 5 20 10 20 6 0 10 -9 10 -20z"/>
<path d="M1353 1893 c-16 -6 -17 -30 -2 -35 9 -3 8 -10 -2 -25 -10 -18 -11
-24 0 -37 8 -9 21 -16 31 -16 10 0 23 7 31 16 11 13 10 19 0 37 -10 15 -11 22
-2 25 16 5 13 29 -5 36 -18 7 -33 7 -51 -1z m37 -23 c0 -5 -4 -10 -10 -10 -5
0 -10 5 -10 10 0 6 5 10 10 10 6 0 10 -4 10 -10z m0 -50 c0 -11 -4 -20 -10
-20 -5 0 -10 9 -10 20 0 11 5 20 10 20 6 0 10 -9 10 -20z"/>
<path d="M1463 1893 c-16 -6 -17 -30 -2 -35 9 -3 8 -10 -2 -25 -10 -18 -11
-24 0 -37 8 -9 21 -16 31 -16 10 0 23 7 31 16 11 13 10 19 0 37 -10 15 -11 22
-2 25 16 5 13 29 -5 36 -18 7 -33 7 -51 -1z m37 -23 c0 -5 -4 -10 -10 -10 -5
0 -10 5 -10 10 0 6 5 10 10 10 6 0 10 -4 10 -10z m0 -50 c0 -11 -4 -20 -10
-20 -5 0 -10 9 -10 20 0 11 5 20 10 20 6 0 10 -9 10 -20z"/>
<path d="M1546 1853 c7 -62 11 -73 25 -73 7 0 9 11 5 30 -3 17 -9 44 -12 60
-10 48 -24 34 -18 -17z"/>
<path d="M1616 1870 c-3 -16 -9 -43 -12 -60 -4 -19 -2 -30 5 -30 14 0 18 11
25 73 6 51 -8 65 -18 17z"/>
<path d="M2723 1893 c-16 -6 -17 -30 -2 -35 9 -3 8 -10 -2 -25 -10 -18 -11
-24 0 -37 8 -9 21 -16 31 -16 10 0 23 7 31 16 11 13 10 19 0 37 -10 15 -11 22
-2 25 16 5 13 29 -5 36 -18 7 -33 7 -51 -1z m37 -23 c0 -5 -4 -10 -10 -10 -5
0 -10 5 -10 10 0 6 5 10 10 10 6 0 10 -4 10 -10z m0 -50 c0 -11 -4 -20 -10
-20 -5 0 -10 9 -10 20 0 11 5 20 10 20 6 0 10 -9 10 -20z"/>
<path d="M2823 1893 c-16 -6 -17 -30 -2 -35 9 -3 8 -10 -2 -25 -10 -18 -11
-24 0 -37 8 -9 21 -16 31 -16 10 0 23 7 31 16 11 13 10 19 0 37 -10 15 -11 22
-2 25 16 5 13 29 -5 36 -18 7 -33 7 -51 -1z m37 -23 c0 -5 -4 -10 -10 -10 -5
0 -10 5 -10 10 0 6 5 10 10 10 6 0 10 -4 10 -10z m0 -50 c0 -11 -4 -20 -10
-20 -5 0 -10 9 -10 20 0 11 5 20 10 20 6 0 10 -9 10 -20z"/>
<path d="M2933 1893 c-16 -6 -17 -30 -2 -35 9 -3 8 -10 -2 -25 -10 -18 -11
-24 0 -37 8 -9 21 -16 31 -16 10 0 23 7 31 16 11 13 10 19 0 37 -10 15 -11 22
-2 25 16 5 13 29 -5 36 -18 7 -33 7 -51 -1z m37 -23 c0 -5 -4 -10 -10 -10 -5
0 -10 5 -10 10 0 6 5 10 10 10 6 0 10 -4 10 -10z m0 -50 c0 -11 -4 -20 -10
-20 -5 0 -10 9 -10 20 0 11 5 20 10 20 6 0 10 -9 10 -20z"/>
<path d="M3033 1893 c-16 -6 -17 -30 -2 -35 9 -3 8 -10 -2 -25 -10 -18 -11
-24 0 -37 8 -9 21 -16 31 -16 10 0 23 7 31 16 11 13 10 19 0 37 -10 15 -11 22
-2 25 16 5 13 29 -5 36 -18 7 -33 7 -51 -1z m37 -23 c0 -5 -4 -10 -10 -10 -5
0 -10 5 -10 10 0 6 5 10 10 10 6 0 10 -4 10 -10z m0 -50 c0 -11 -4 -20 -10
-20 -5 0 -10 9 -10 20 0 11 5 20 10 20 6 0 10 -9 10 -20z"/>
<path d="M1580 1850 c0 -11 5 -20 10 -20 6 0 10 9 10 20 0 11 -4 20 -10 20 -5
0 -10 -9 -10 -20z"/>
<path d="M2630 1855 c0 -8 7 -15 15 -15 8 0 15 7 15 15 0 8 -7 15 -15 15 -8 0
-15 -7 -15 -15z"/>
<path d="M3160 1855 c0 -8 7 -15 15 -15 8 0 15 7 15 15 0 8 -7 15 -15 15 -8 0
-15 -7 -15 -15z"/>
<path d="M1688 1785 c-6 -27 1 -32 20 -13 16 16 15 38 -2 38 -7 0 -16 -11 -18
-25z"/>
<path d="M2630 1795 c0 -8 7 -15 15 -15 8 0 15 7 15 15 0 8 -7 15 -15 15 -8 0
-15 -7 -15 -15z"/>
<path d="M3160 1795 c0 -8 7 -15 15 -15 8 0 15 7 15 15 0 8 -7 15 -15 15 -8 0
-15 -7 -15 -15z"/>
<path d="M1236 1633 c7 -62 11 -73 25 -73 7 0 9 11 5 30 -3 17 -9 44 -12 60
-10 48 -24 34 -18 -17z"/>
<path d="M1306 1650 c-3 -16 -9 -43 -12 -60 -4 -19 -2 -30 5 -30 14 0 18 11
25 73 6 51 -8 65 -18 17z"/>
<path d="M1353 1673 c-16 -6 -17 -30 -2 -35 9 -3 8 -10 -2 -25 -10 -18 -11
-24 0 -37 8 -9 21 -16 31 -16 10 0 23 7 31 16 11 13 10 19 0 37 -10 15 -11 22
-2 25 16 5 13 29 -5 36 -18 7 -33 7 -51 -1z m37 -23 c0 -5 -4 -10 -10 -10 -5
0 -10 5 -10 10 0 6 5 10 10 10 6 0 10 -4 10 -10z m0 -50 c0 -11 -4 -20 -10
-20 -5 0 -10 9 -10 20 0 11 5 20 10 20 6 0 10 -9 10 -20z"/>
<path d="M1463 1673 c-16 -6 -17 -30 -2 -35 9 -3 8 -10 -2 -25 -10 -18 -11
-24 0 -37 8 -9 21 -16 31 -16 10 0 23 7 31 16 11 13 10 19 0 37 -10 15 -11 22
-2 25 16 5 13 29 -5 36 -18 7 -33 7 -51 -1z m37 -23 c0 -5 -4 -10 -10 -10 -5
0 -10 5 -10 10 0 6 5 10 10 10 6 0 10 -4 10 -10z m0 -50 c0 -11 -4 -20 -10
-20 -5 0 -10 9 -10 20 0 11 5 20 10 20 6 0 10 -9 10 -20z"/>
<path d="M1546 1633 c7 -62 11 -73 25 -73 7 0 9 11 5 30 -3 17 -9 44 -12 60
-10 48 -24 34 -18 -17z"/>
<path d="M1616 1650 c-3 -16 -9 -43 -12 -60 -4 -19 -2 -30 5 -30 14 0 18 11
25 73 6 51 -8 65 -18 17z"/>
<path d="M2723 1673 c-16 -6 -17 -30 -2 -35 9 -3 8 -10 -2 -25 -10 -18 -11
-24 0 -37 8 -9 21 -16 31 -16 10 0 23 7 31 16 11 13 10 19 0 37 -10 15 -11 22
-2 25 16 5 13 29 -5 36 -18 7 -33 7 -51 -1z m37 -23 c0 -5 -4 -10 -10 -10 -5
0 -10 5 -10 10 0 6 5 10 10 10 6 0 10 -4 10 -10z m0 -50 c0 -11 -4 -20 -10
-20 -5 0 -10 9 -10 20 0 11 5 20 10 20 6 0 10 -9 10 -20z"/>
<path d="M2823 1673 c-16 -6 -17 -30 -2 -35 9 -3 8 -10 -2 -25 -10 -18 -11
-24 0 -37 8 -9 21 -16 31 -16 10 0 23 7 31 16 11 13 10 19 0 37 -10 15 -11 22
-2 25 16 5 13 29 -5 36 -18 7 -33 7 -51 -1z m37 -23 c0 -5 -4 -10 -10 -10 -5
0 -10 5 -10 10 0 6 5 10 10 10 6 0 10 -4 10 -10z m0 -50 c0 -11 -4 -20 -10
-20 -5 0 -10 9 -10 20 0 11 5 20 10 20 6 0 10 -9 10 -20z"/>
<path d="M2933 1673 c-16 -6 -17 -30 -2 -35 9 -3 8 -10 -2 -25 -10 -18 -11
-24 0 -37 8 -9 21 -16 31 -16 10 0 23 7 31 16 11 13 10 19 0 37 -10 15 -11 22
-2 25 16 5 13 29 -5 36 -18 7 -33 7 -51 -1z m37 -23 c0 -5 -4 -10 -10 -10 -5
0 -10 5 -10 10 0 6 5 10 10 10 6 0 10 -4 10 -10z m0 -50 c0 -11 -4 -20 -10
-20 -5 0 -10 9 -10 20 0 11 5 20 10 20 6 0 10 -9 10 -20z"/>
<path d="M3033 1673 c-16 -6 -17 -30 -2 -35 9 -3 8 -10 -2 -25 -10 -18 -11
-24 0 -37 8 -9 21 -16 31 -16 10 0 23 7 31 16 11 13 10 19 0 37 -10 15 -11 22
-2 25 16 5 13 29 -5 36 -18 7 -33 7 -51 -1z m37 -23 c0 -5 -4 -10 -10 -10 -5
0 -10 5 -10 10 0 6 5 10 10 10 6 0 10 -4 10 -10z m0 -50 c0 -11 -4 -20 -10
-20 -5 0 -10 9 -10 20 0 11 5 20 10 20 6 0 10 -9 10 -20z"/>
<path d="M1270 1630 c0 -11 5 -20 10 -20 6 0 10 9 10 20 0 11 -4 20 -10 20 -5
0 -10 -9 -10 -20z"/>
<path d="M1580 1630 c0 -11 5 -20 10 -20 6 0 10 9 10 20 0 11 -4 20 -10 20 -5
0 -10 -9 -10 -20z"/>
<path d="M2630 1635 c0 -8 7 -15 15 -15 8 0 15 7 15 15 0 8 -7 15 -15 15 -8 0
-15 -7 -15 -15z"/>
<path d="M3160 1635 c0 -8 7 -15 15 -15 8 0 15 7 15 15 0 8 -7 15 -15 15 -8 0
-15 -7 -15 -15z"/>
<path d="M1688 1565 c-6 -27 1 -32 20 -13 16 16 15 38 -2 38 -7 0 -16 -11 -18
-25z"/>
<path d="M2630 1575 c0 -8 7 -15 15 -15 8 0 15 7 15 15 0 8 -7 15 -15 15 -8 0
-15 -7 -15 -15z"/>
<path d="M3160 1575 c0 -8 7 -15 15 -15 8 0 15 7 15 15 0 8 -7 15 -15 15 -8 0
-15 -7 -15 -15z"/>
<path d="M1236 1423 c7 -62 11 -73 25 -73 7 0 9 11 5 30 -3 17 -9 44 -12 60
-10 48 -24 34 -18 -17z"/>
<path d="M1306 1440 c-3 -16 -9 -43 -12 -60 -4 -19 -2 -30 5 -30 14 0 18 11
25 73 6 51 -8 65 -18 17z"/>
<path d="M1353 1463 c-16 -6 -17 -30 -2 -35 9 -3 8 -10 -2 -25 -10 -18 -11
-24 0 -37 8 -9 21 -16 31 -16 10 0 23 7 31 16 11 13 10 19 0 37 -10 15 -11 22
-2 25 16 5 13 29 -5 36 -18 7 -33 7 -51 -1z m37 -23 c0 -5 -4 -10 -10 -10 -5
0 -10 5 -10 10 0 6 5 10 10 10 6 0 10 -4 10 -10z m0 -50 c0 -11 -4 -20 -10
-20 -5 0 -10 9 -10 20 0 11 5 20 10 20 6 0 10 -9 10 -20z"/>
<path d="M1463 1463 c-16 -6 -17 -30 -2 -35 9 -3 8 -10 -2 -25 -10 -18 -11
-24 0 -37 8 -9 21 -16 31 -16 10 0 23 7 31 16 11 13 10 19 0 37 -10 15 -11 22
-2 25 16 5 13 29 -5 36 -18 7 -33 7 -51 -1z m37 -23 c0 -5 -4 -10 -10 -10 -5
0 -10 5 -10 10 0 6 5 10 10 10 6 0 10 -4 10 -10z m0 -50 c0 -11 -4 -20 -10
-20 -5 0 -10 9 -10 20 0 11 5 20 10 20 6 0 10 -9 10 -20z"/>
<path d="M1546 1423 c7 -62 11 -73 25 -73 7 0 9 11 5 30 -3 17 -9 44 -12 60
-10 48 -24 34 -18 -17z"/>
<path d="M1616 1440 c-3 -16 -9 -43 -12 -60 -4 -19 -2 -30 5 -30 14 0 18 11
25 73 6 51 -8 65 -18 17z"/>
<path d="M2723 1463 c-16 -6 -17 -30 -2 -35 9 -3 8 -10 -2 -25 -10 -18 -11
-24 0 -37 8 -9 21 -16 31 -16 10 0 23 7 31 16 11 13 10 19 0 37 -10 15 -11 22
-2 25 16 5 13 29 -5 36 -18 7 -33 7 -51 -1z m37 -23 c0 -5 -4 -10 -10 -10 -5
0 -10 5 -10 10 0 6 5 10 10 10 6 0 10 -4 10 -10z m0 -50 c0 -11 -4 -20 -10
-20 -5 0 -10 9 -10 20 0 11 5 20 10 20 6 0 10 -9 10 -20z"/>
<path d="M2823 1463 c-16 -6 -17 -30 -2 -35 9 -3 8 -10 -2 -25 -10 -18 -11
-24 0 -37 8 -9 21 -16 31 -16 10 0 23 7 31 16 11 13 10 19 0 37 -10 15 -11 22
-2 25 16 5 13 29 -5 36 -18 7 -33 7 -51 -1z m37 -23 c0 -5 -4 -10 -10 -10 -5
0 -10 5 -10 10 0 6 5 10 10 10 6 0 10 -4 10 -10z m0 -50 c0 -11 -4 -20 -10
-20 -5 0 -10 9 -10 20 0 11 5 20 10 20 6 0 10 -9 10 -20z"/>
<path d="M2933 1463 c-16 -6 -17 -30 -2 -35 9 -3 8 -10 -2 -25 -10 -18 -11
-24 0 -37 8 -9 21 -16 31 -16 10 0 23 7 31 16 11 13 10 19 0 37 -10 15 -11 22
-2 25 16 5 13 29 -5 36 -18 7 -33 7 -51 -1z m37 -23 c0 -5 -4 -10 -10 -10 -5
0 -10 5 -10 10 0 6 5 10 10 10 6 0 10 -4 10 -10z m0 -50 c0 -11 -4 -20 -10
-20 -5 0 -10 9 -10 20 0 11 5 20 10 20 6 0 10 -9 10 -20z"/>
<path d="M3033 1463 c-16 -6 -17 -30 -2 -35 9 -3 8 -10 -2 -25 -10 -18 -11
-24 0 -37 8 -9 21 -16 31 -16 10 0 23 7 31 16 11 13 10 19 0 37 -10 15 -11 22
-2 25 16 5 13 29 -5 36 -18 7 -33 7 -51 -1z m37 -23 c0 -5 -4 -10 -10 -10 -5
0 -10 5 -10 10 0 6 5 10 10 10 6 0 10 -4 10 -10z m0 -50 c0 -11 -4 -20 -10
-20 -5 0 -10 9 -10 20 0 11 5 20 10 20 6 0 10 -9 10 -20z"/>
<path d="M1270 1420 c0 -11 5 -20 10 -20 6 0 10 9 10 20 0 11 -4 20 -10 20 -5
0 -10 -9 -10 -20z"/>
<path d="M1580 1420 c0 -11 5 -20 10 -20 6 0 10 9 10 20 0 11 -4 20 -10 20 -5
0 -10 -9 -10 -20z"/>
<path d="M1690 1425 c0 -8 7 -15 15 -15 8 0 15 7 15 15 0 8 -7 15 -15 15 -8 0
-15 -7 -15 -15z"/>
<path d="M2630 1425 c0 -8 7 -15 15 -15 8 0 15 7 15 15 0 8 -7 15 -15 15 -8 0
-15 -7 -15 -15z"/>
<path d="M3160 1425 c0 -8 7 -15 15 -15 8 0 15 7 15 15 0 8 -7 15 -15 15 -8 0
-15 -7 -15 -15z"/>
<path d="M1690 1365 c0 -8 7 -15 15 -15 8 0 15 7 15 15 0 8 -7 15 -15 15 -8 0
-15 -7 -15 -15z"/>
<path d="M2630 1365 c0 -8 7 -15 15 -15 8 0 15 7 15 15 0 8 -7 15 -15 15 -8 0
-15 -7 -15 -15z"/>
<path d="M3160 1365 c0 -8 7 -15 15 -15 8 0 15 7 15 15 0 8 -7 15 -15 15 -8 0
-15 -7 -15 -15z"/>
<path d="M1240 1200 c0 -57 1 -60 24 -60 33 0 56 25 56 60 0 35 -23 60 -56 60
-23 0 -24 -3 -24 -60z m50 0 c0 -16 -4 -32 -10 -35 -6 -4 -10 10 -10 35 0 25
4 39 10 35 6 -3 10 -19 10 -35z"/>
<path d="M1357 1242 c-35 -38 -10 -107 37 -100 16 2 22 11 24 36 3 27 0 32
-18 32 -17 0 -19 -4 -14 -27 5 -22 4 -25 -5 -17 -7 6 -11 24 -9 40 2 23 8 29
26 28 12 0 21 4 19 10 -6 19 -42 18 -60 -2z"/>
<path d="M1467 1242 c-35 -38 -10 -107 37 -100 16 2 22 11 24 36 3 27 0 32
-18 32 -17 0 -19 -4 -14 -27 5 -22 4 -25 -5 -17 -7 6 -11 24 -9 40 2 23 8 29
26 28 12 0 21 4 19 10 -6 19 -42 18 -60 -2z"/>
<path d="M1550 1200 c0 -57 1 -60 24 -60 33 0 56 25 56 60 0 35 -23 60 -56 60
-23 0 -24 -3 -24 -60z m50 0 c0 -16 -4 -32 -10 -35 -6 -4 -10 10 -10 35 0 25
4 39 10 35 6 -3 10 -19 10 -35z"/>
<path d="M2723 1253 c-16 -6 -17 -30 -2 -35 9 -3 8 -10 -2 -25 -10 -18 -11
-24 0 -37 8 -9 21 -16 31 -16 10 0 23 7 31 16 11 13 10 19 0 37 -10 15 -11 22
-2 25 16 5 13 29 -5 36 -18 7 -33 7 -51 -1z m37 -23 c0 -5 -4 -10 -10 -10 -5
0 -10 5 -10 10 0 6 5 10 10 10 6 0 10 -4 10 -10z m0 -50 c0 -11 -4 -20 -10
-20 -5 0 -10 9 -10 20 0 11 5 20 10 20 6 0 10 -9 10 -20z"/>
<path d="M2823 1253 c-16 -6 -17 -30 -2 -35 9 -3 8 -10 -2 -25 -10 -18 -11
-24 0 -37 8 -9 21 -16 31 -16 10 0 23 7 31 16 11 13 10 19 0 37 -10 15 -11 22
-2 25 16 5 13 29 -5 36 -18 7 -33 7 -51 -1z m37 -23 c0 -5 -4 -10 -10 -10 -5
0 -10 5 -10 10 0 6 5 10 10 10 6 0 10 -4 10 -10z m0 -50 c0 -11 -4 -20 -10
-20 -5 0 -10 9 -10 20 0 11 5 20 10 20 6 0 10 -9 10 -20z"/>
<path d="M2933 1253 c-16 -6 -17 -30 -2 -35 9 -3 8 -10 -2 -25 -10 -18 -11
-24 0 -37 8 -9 21 -16 31 -16 10 0 23 7 31 16 11 13 10 19 0 37 -10 15 -11 22
-2 25 16 5 13 29 -5 36 -18 7 -33 7 -51 -1z m37 -23 c0 -5 -4 -10 -10 -10 -5
0 -10 5 -10 10 0 6 5 10 10 10 6 0 10 -4 10 -10z m0 -50 c0 -11 -4 -20 -10
-20 -5 0 -10 9 -10 20 0 11 5 20 10 20 6 0 10 -9 10 -20z"/>
<path d="M3033 1253 c-16 -6 -17 -30 -2 -35 9 -3 8 -10 -2 -25 -10 -18 -11
-24 0 -37 8 -9 21 -16 31 -16 10 0 23 7 31 16 11 13 10 19 0 37 -10 15 -11 22
-2 25 16 5 13 29 -5 36 -18 7 -33 7 -51 -1z m37 -23 c0 -5 -4 -10 -10 -10 -5
0 -10 5 -10 10 0 6 5 10 10 10 6 0 10 -4 10 -10z m0 -50 c0 -11 -4 -20 -10
-20 -5 0 -10 9 -10 20 0 11 5 20 10 20 6 0 10 -9 10 -20z"/>
<path d="M1690 1215 c0 -8 7 -15 15 -15 8 0 15 7 15 15 0 8 -7 15 -15 15 -8 0
-15 -7 -15 -15z"/>
<path d="M2630 1215 c0 -8 7 -15 15 -15 8 0 15 7 15 15 0 8 -7 15 -15 15 -8 0
-15 -7 -15 -15z"/>
<path d="M3160 1215 c0 -8 7 -15 15 -15 8 0 15 7 15 15 0 8 -7 15 -15 15 -8 0
-15 -7 -15 -15z"/>
<path d="M1690 1155 c0 -8 7 -15 15 -15 8 0 15 7 15 15 0 8 -7 15 -15 15 -8 0
-15 -7 -15 -15z"/>
<path d="M2630 1155 c0 -8 7 -15 15 -15 8 0 15 7 15 15 0 8 -7 15 -15 15 -8 0
-15 -7 -15 -15z"/>
<path d="M3160 1155 c0 -8 7 -15 15 -15 8 0 15 7 15 15 0 8 -7 15 -15 15 -8 0
-15 -7 -15 -15z"/>
<path d="M2723 1033 c-16 -6 -17 -30 -2 -35 9 -3 8 -10 -2 -25 -10 -18 -11
-24 0 -37 8 -9 21 -16 31 -16 10 0 23 7 31 16 11 13 10 19 0 37 -10 15 -11 22
-2 25 16 5 13 29 -5 36 -18 7 -33 7 -51 -1z m37 -23 c0 -5 -4 -10 -10 -10 -5
0 -10 5 -10 10 0 6 5 10 10 10 6 0 10 -4 10 -10z m0 -50 c0 -11 -4 -20 -10
-20 -5 0 -10 9 -10 20 0 11 5 20 10 20 6 0 10 -9 10 -20z"/>
<path d="M2823 1033 c-16 -6 -17 -30 -2 -35 9 -3 8 -10 -2 -25 -10 -18 -11
-24 0 -37 8 -9 21 -16 31 -16 10 0 23 7 31 16 11 13 10 19 0 37 -10 15 -11 22
-2 25 16 5 13 29 -5 36 -18 7 -33 7 -51 -1z m37 -23 c0 -5 -4 -10 -10 -10 -5
0 -10 5 -10 10 0 6 5 10 10 10 6 0 10 -4 10 -10z m0 -50 c0 -11 -4 -20 -10
-20 -5 0 -10 9 -10 20 0 11 5 20 10 20 6 0 10 -9 10 -20z"/>
<path d="M2933 1033 c-16 -6 -17 -30 -2 -35 9 -3 8 -10 -2 -25 -10 -18 -11
-24 0 -37 8 -9 21 -16 31 -16 10 0 23 7 31 16 11 13 10 19 0 37 -10 15 -11 22
-2 25 16 5 13 29 -5 36 -18 7 -33 7 -51 -1z m37 -23 c0 -5 -4 -10 -10 -10 -5
0 -10 5 -10 10 0 6 5 10 10 10 6 0 10 -4 10 -10z m0 -50 c0 -11 -4 -20 -10
-20 -5 0 -10 9 -10 20 0 11 5 20 10 20 6 0 10 -9 10 -20z"/>
<path d="M3033 1033 c-16 -6 -17 -30 -2 -35 9 -3 8 -10 -2 -25 -10 -18 -11
-24 0 -37 8 -9 21 -16 31 -16 10 0 23 7 31 16 11 13 10 19 0 37 -10 15 -11 22
-2 25 16 5 13 29 -5 36 -18 7 -33 7 -51 -1z m37 -23 c0 -5 -4 -10 -10 -10 -5
0 -10 5 -10 10 0 6 5 10 10 10 6 0 10 -4 10 -10z m0 -50 c0 -11 -4 -20 -10
-20 -5 0 -10 9 -10 20 0 11 5 20 10 20 6 0 10 -9 10 -20z"/>
<path d="M2630 995 c0 -8 7 -15 15 -15 8 0 15 7 15 15 0 8 -7 15 -15 15 -8 0
-15 -7 -15 -15z"/>
<path d="M3160 995 c0 -8 7 -15 15 -15 8 0 15 7 15 15 0 8 -7 15 -15 15 -8 0
-15 -7 -15 -15z"/>
<path d="M2630 935 c0 -8 7 -15 15 -15 8 0 15 7 15 15 0 8 -7 15 -15 15 -8 0
-15 -7 -15 -15z"/>
<path d="M3160 935 c0 -8 7 -15 15 -15 8 0 15 7 15 15 0 8 -7 15 -15 15 -8 0
-15 -7 -15 -15z"/>
<path d="M2706 783 c7 -62 11 -73 25 -73 7 0 9 11 5 30 -3 17 -9 44 -12 60
-10 48 -24 34 -18 -17z"/>
<path d="M2776 800 c-3 -16 -9 -43 -12 -60 -4 -19 -2 -30 5 -30 14 0 18 11 25
73 6 51 -8 65 -18 17z"/>
<path d="M2823 823 c-16 -6 -17 -30 -2 -35 9 -3 8 -10 -2 -25 -10 -18 -11 -24
0 -37 8 -9 21 -16 31 -16 10 0 23 7 31 16 11 13 10 19 0 37 -10 15 -11 22 -2
25 16 5 13 29 -5 36 -18 7 -33 7 -51 -1z m37 -23 c0 -5 -4 -10 -10 -10 -5 0
-10 5 -10 10 0 6 5 10 10 10 6 0 10 -4 10 -10z m0 -50 c0 -11 -4 -20 -10 -20
-5 0 -10 9 -10 20 0 11 5 20 10 20 6 0 10 -9 10 -20z"/>
<path d="M2933 823 c-16 -6 -17 -30 -2 -35 9 -3 8 -10 -2 -25 -10 -18 -11 -24
0 -37 8 -9 21 -16 31 -16 10 0 23 7 31 16 11 13 10 19 0 37 -10 15 -11 22 -2
25 16 5 13 29 -5 36 -18 7 -33 7 -51 -1z m37 -23 c0 -5 -4 -10 -10 -10 -5 0
-10 5 -10 10 0 6 5 10 10 10 6 0 10 -4 10 -10z m0 -50 c0 -11 -4 -20 -10 -20
-5 0 -10 9 -10 20 0 11 5 20 10 20 6 0 10 -9 10 -20z"/>
<path d="M3033 823 c-16 -6 -17 -30 -2 -35 9 -3 8 -10 -2 -25 -10 -18 -11 -24
0 -37 8 -9 21 -16 31 -16 10 0 23 7 31 16 11 13 10 19 0 37 -10 15 -11 22 -2
25 16 5 13 29 -5 36 -18 7 -33 7 -51 -1z m37 -23 c0 -5 -4 -10 -10 -10 -5 0
-10 5 -10 10 0 6 5 10 10 10 6 0 10 -4 10 -10z m0 -50 c0 -11 -4 -20 -10 -20
-5 0 -10 9 -10 20 0 11 5 20 10 20 6 0 10 -9 10 -20z"/>
<path d="M2630 785 c0 -8 7 -15 15 -15 8 0 15 7 15 15 0 8 -7 15 -15 15 -8 0
-15 -7 -15 -15z"/>
<path d="M2740 780 c0 -11 5 -20 10 -20 6 0 10 9 10 20 0 11 -4 20 -10 20 -5
0 -10 -9 -10 -20z"/>
<path d="M3160 785 c0 -8 7 -15 15 -15 8 0 15 7 15 15 0 8 -7 15 -15 15 -8 0
-15 -7 -15 -15z"/>
<path d="M2630 725 c0 -8 7 -15 15 -15 8 0 15 7 15 15 0 8 -7 15 -15 15 -8 0
-15 -7 -15 -15z"/>
<path d="M3160 725 c0 -8 7 -15 15 -15 8 0 15 7 15 15 0 8 -7 15 -15 15 -8 0
-15 -7 -15 -15z"/>
<path d="M2723 613 c-16 -6 -17 -30 -2 -35 9 -3 8 -10 -2 -25 -10 -18 -11 -24
0 -37 8 -9 21 -16 31 -16 10 0 23 7 31 16 11 13 10 19 0 37 -10 15 -11 22 -2
25 16 5 13 29 -5 36 -18 7 -33 7 -51 -1z m37 -23 c0 -5 -4 -10 -10 -10 -5 0
-10 5 -10 10 0 6 5 10 10 10 6 0 10 -4 10 -10z m0 -50 c0 -11 -4 -20 -10 -20
-5 0 -10 9 -10 20 0 11 5 20 10 20 6 0 10 -9 10 -20z"/>
<path d="M2823 613 c-16 -6 -17 -30 -2 -35 9 -3 8 -10 -2 -25 -10 -18 -11 -24
0 -37 8 -9 21 -16 31 -16 10 0 23 7 31 16 11 13 10 19 0 37 -10 15 -11 22 -2
25 16 5 13 29 -5 36 -18 7 -33 7 -51 -1z m37 -23 c0 -5 -4 -10 -10 -10 -5 0
-10 5 -10 10 0 6 5 10 10 10 6 0 10 -4 10 -10z m0 -50 c0 -11 -4 -20 -10 -20
-5 0 -10 9 -10 20 0 11 5 20 10 20 6 0 10 -9 10 -20z"/>
<path d="M2933 613 c-16 -6 -17 -30 -2 -35 9 -3 8 -10 -2 -25 -10 -18 -11 -24
0 -37 8 -9 21 -16 31 -16 10 0 23 7 31 16 11 13 10 19 0 37 -10 15 -11 22 -2
25 16 5 13 29 -5 36 -18 7 -33 7 -51 -1z m37 -23 c0 -5 -4 -10 -10 -10 -5 0
-10 5 -10 10 0 6 5 10 10 10 6 0 10 -4 10 -10z m0 -50 c0 -11 -4 -20 -10 -20
-5 0 -10 9 -10 20 0 11 5 20 10 20 6 0 10 -9 10 -20z"/>
<path d="M3033 613 c-16 -6 -17 -30 -2 -35 9 -3 8 -10 -2 -25 -10 -18 -11 -24
0 -37 8 -9 21 -16 31 -16 10 0 23 7 31 16 11 13 10 19 0 37 -10 15 -11 22 -2
25 16 5 13 29 -5 36 -18 7 -33 7 -51 -1z m37 -23 c0 -5 -4 -10 -10 -10 -5 0
-10 5 -10 10 0 6 5 10 10 10 6 0 10 -4 10 -10z m0 -50 c0 -11 -4 -20 -10 -20
-5 0 -10 9 -10 20 0 11 5 20 10 20 6 0 10 -9 10 -20z"/>
<path d="M2630 575 c0 -8 7 -15 15 -15 8 0 15 7 15 15 0 8 -7 15 -15 15 -8 0
-15 -7 -15 -15z"/>
<path d="M3160 575 c0 -8 7 -15 15 -15 8 0 15 7 15 15 0 8 -7 15 -15 15 -8 0
-15 -7 -15 -15z"/>
<path d="M2630 515 c0 -8 7 -15 15 -15 8 0 15 7 15 15 0 8 -7 15 -15 15 -8 0
-15 -7 -15 -15z"/>
<path d="M3160 515 c0 -8 7 -15 15 -15 8 0 15 7 15 15 0 8 -7 15 -15 15 -8 0
-15 -7 -15 -15z"/>
<path d="M3160 415 c0 -8 7 -15 15 -15 8 0 15 7 15 15 0 8 -7 15 -15 15 -8 0
-15 -7 -15 -15z"/>
<path d="M2710 350 l0 -60 40 0 c22 0 40 5 40 10 0 6 -11 10 -25 10 -16 0 -25
6 -25 15 0 8 9 15 20 15 11 0 20 5 20 10 0 6 -9 10 -20 10 -11 0 -20 7 -20 15
0 9 9 15 25 15 14 0 25 5 25 10 0 6 -18 10 -40 10 l-40 0 0 -60z"/>
<path d="M2823 403 c-16 -6 -17 -30 -2 -35 9 -3 8 -10 -2 -25 -10 -18 -11 -24
0 -37 8 -9 21 -16 31 -16 10 0 23 7 31 16 11 13 10 19 0 37 -10 15 -11 22 -2
25 16 5 13 29 -5 36 -18 7 -33 7 -51 -1z m37 -23 c0 -5 -4 -10 -10 -10 -5 0
-10 5 -10 10 0 6 5 10 10 10 6 0 10 -4 10 -10z m0 -50 c0 -11 -4 -20 -10 -20
-5 0 -10 9 -10 20 0 11 5 20 10 20 6 0 10 -9 10 -20z"/>
<path d="M2933 403 c-16 -6 -17 -30 -2 -35 9 -3 8 -10 -2 -25 -10 -18 -11 -24
0 -37 8 -9 21 -16 31 -16 10 0 23 7 31 16 11 13 10 19 0 37 -10 15 -11 22 -2
25 16 5 13 29 -5 36 -18 7 -33 7 -51 -1z m37 -23 c0 -5 -4 -10 -10 -10 -5 0
-10 5 -10 10 0 6 5 10 10 10 6 0 10 -4 10 -10z m0 -50 c0 -11 -4 -20 -10 -20
-5 0 -10 9 -10 20 0 11 5 20 10 20 6 0 10 -9 10 -20z"/>
<path d="M3033 403 c-16 -6 -17 -30 -2 -35 9 -3 8 -10 -2 -25 -10 -18 -11 -24
0 -37 8 -9 21 -16 31 -16 10 0 23 7 31 16 11 13 10 19 0 37 -10 15 -11 22 -2
25 16 5 13 29 -5 36 -18 7 -33 7 -51 -1z m37 -23 c0 -5 -4 -10 -10 -10 -5 0
-10 5 -10 10 0 6 5 10 10 10 6 0 10 -4 10 -10z m0 -50 c0 -11 -4 -20 -10 -20
-5 0 -10 9 -10 20 0 11 5 20 10 20 6 0 10 -9 10 -20z"/>
<path d="M3140 370 c0 -5 5 -10 10 -10 6 0 10 -11 10 -25 0 -16 -6 -25 -15
-25 -8 0 -15 -4 -15 -10 0 -5 20 -10 45 -10 25 0 45 5 45 10 0 6 -7 10 -15 10
-10 0 -15 11 -15 35 0 31 -3 35 -25 35 -14 0 -25 -4 -25 -10z"/>
<path d="M2730 176 c0 -8 -6 -17 -12 -19 -10 -4 -10 -8 -1 -14 6 -4 13 -22 15
-38 2 -24 8 -31 31 -33 15 -2 27 1 27 7 0 6 -7 11 -15 11 -9 0 -15 9 -15 25 0
16 6 25 15 25 8 0 15 5 15 10 0 6 -7 10 -15 10 -8 0 -15 7 -15 15 0 8 -7 15
-15 15 -8 0 -15 -6 -15 -14z"/>
<path d="M2806 143 c7 -62 11 -73 25 -73 7 0 9 11 5 30 -3 16 -9 44 -12 60
-10 48 -24 34 -18 -17z"/>
<path d="M2876 160 c-3 -16 -9 -44 -12 -60 -4 -19 -2 -30 5 -30 14 0 18 11 25
73 6 51 -8 65 -18 17z"/>
<path d="M2933 183 c-16 -6 -17 -30 -2 -35 9 -3 8 -10 -2 -25 -10 -18 -11 -24
0 -37 17 -20 45 -20 62 0 11 13 10 19 0 37 -10 15 -11 22 -2 25 16 5 13 29 -5
36 -18 7 -33 7 -51 -1z m37 -23 c0 -5 -4 -10 -10 -10 -5 0 -10 5 -10 10 0 6 5
10 10 10 6 0 10 -4 10 -10z m0 -50 c0 -11 -4 -20 -10 -20 -5 0 -10 9 -10 20 0
11 5 20 10 20 6 0 10 -9 10 -20z"/>
<path d="M3033 183 c-16 -6 -17 -30 -2 -35 9 -3 8 -10 -2 -25 -10 -18 -11 -24
0 -37 17 -20 45 -20 62 0 11 13 10 19 0 37 -10 15 -11 22 -2 25 16 5 13 29 -5
36 -18 7 -33 7 -51 -1z m37 -23 c0 -5 -4 -10 -10 -10 -5 0 -10 5 -10 10 0 6 5
10 10 10 6 0 10 -4 10 -10z m0 -50 c0 -11 -4 -20 -10 -20 -5 0 -10 9 -10 20 0
11 5 20 10 20 6 0 10 -9 10 -20z"/>
<path d="M3130 130 c0 -57 1 -60 24 -60 33 0 56 25 56 60 0 35 -23 60 -56 60
-23 0 -24 -3 -24 -60z m50 0 c0 -16 -4 -32 -10 -35 -6 -4 -10 10 -10 35 0 25
4 39 10 35 6 -3 10 -19 10 -35z"/>
<path d="M2840 140 c0 -11 5 -20 10 -20 6 0 10 9 10 20 0 11 -4 20 -10 20 -5
0 -10 -9 -10 -20z"/>
</g>
</svg>
